<mxfile host="app.diagrams.net" modified="2024-02-09T06:52:56.605Z" agent="Mozilla/5.0 (Windows NT 10.0; Win64; x64) AppleWebKit/537.36 (KHTML, like Gecko) Chrome/121.0.0.0 Safari/537.36" version="23.1.2" etag="Hhsc9mpygY8C079EnZQB" type="github">
  <diagram name="Page-1" id="3ozkskTSHbi149KDL0i7">
    <mxGraphModel>
      <root>
        <mxCell id="0" />
        <mxCell id="1" parent="0" />
      </root>
    </mxGraphModel>
  </diagram>
</mxfile>
